
<svg xmlns="http://www.w3.org/2000/svg" viewBox="0 0 16 16"><path fill="#4caf50" d="M7.7 7.58a.5.5 0 00-.36-.3c-.07-.01-1.85-.47-2.7-3.07a.5.5 0 00-.37-.33A8.91 8.91 0 01.84 2.13a.5.5 0 00-.81.5 9.08 9.08 0 01-.01 3.85.5.5 0 00.12.47 4.29 4.29 0 011.49 3.82.5.5 0 00.53.62c.63-.06 1.79.55 3.06 1.59a.5.5 0 00.32.11.45.45 0 00.06 0 .5.5 0 00.33-.19l1.46-1.88a.5.5 0 00.1-.37c-.22-1.7 0-2.36.16-2.6a.5.5 0 00.04-.47zm8.29-1.1a9.08 9.08 0 01-.02-3.86.5.5 0 00-.81-.5 8.96 8.96 0 01-3.43 1.76.5.5 0 00-.37.33c-.86 2.6-2.63 3.05-2.7 3.07a.5.5 0 00-.31.76c.15.24.38.9.15 2.6a.5.5 0 00.1.37l1.46 1.88a.5.5 0 00.34.2.45.45 0 00.06 0 .5.5 0 00.31-.12 5.71 5.71 0 013.07-1.59.51.51 0 00.43-.17.5.5 0 00.1-.46 4.29 4.29 0 011.49-3.8.5.5 0 00.13-.47z"/><path fill="#388e3c" d="M7.1 13.07a.5.5 0 01-.41-.22 51.41 51.41 0 00-3.96-5.2.5.5 0 01.7-.71 51.2 51.2 0 014.08 5.35.5.5 0 01-.41.78zm5.5-6.28a.5.5 0 00-.41.22 51.41 51.41 0 01-3.96 5.21.5.5 0 00.7.7 51.2 51.2 0 004.08-5.35.5.5 0 00-.41-.78z"/><circle cx="8" cy="13" r="3" fill="#f44336"/><path fill="#ef9a9a" d="M6.5 13.5A.5.5 0 016 13a2 2 0 012-2 .5.5 0 010 1 1 1 0 00-1 1 .5.5 0 01-.5.5z"/></svg>